<svg xmlns="http://www.w3.org/2000/svg" viewBox="0 0 900 380">
    <style>
      .bg { fill: #fffdf8; }
      .axis { stroke: #d8d0c2; stroke-width: 1; }
      .grid { stroke: #eee7da; stroke-width: 1; }
      .label { fill: #62706c; font: 12px system-ui, sans-serif; }
      .title { fill: #17201d; font: 700 18px system-ui, sans-serif; }
      .note { fill: #7a5d2a; font: 700 12px system-ui, sans-serif; }
    </style>
    <rect width="900" height="380" class="bg"/><text x="180" y="26" class="title">Country report counts (top)</text><text x="168" y="75.31666666666666" text-anchor="end" class="label">United States</text><rect x="180" y="48.0" width="670.0" height="37.7" rx="3" fill="#3f6f9f"/><text x="858.0" y="75.31666666666666" text-anchor="start" class="label">65,114</text><text x="168" y="124.98333333333332" text-anchor="end" class="label">UNKNOWN</text><rect x="180" y="97.7" width="99.5" height="37.7" rx="3" fill="#3f6f9f"/><text x="287.50087538778143" y="124.98333333333332" text-anchor="start" class="label">9,670</text><text x="168" y="174.64999999999998" text-anchor="end" class="label">Canada</text><rect x="180" y="147.3" width="30.9" height="37.7" rx="3" fill="#3f6f9f"/><text x="218.86893755567158" y="174.64999999999998" text-anchor="start" class="label">3,000</text><text x="168" y="224.31666666666666" text-anchor="end" class="label">United Kingdom</text><rect x="180" y="197.0" width="19.6" height="37.7" rx="3" fill="#3f6f9f"/><text x="207.60177534785146" y="224.31666666666666" text-anchor="start" class="label">1,905</text><text x="168" y="273.98333333333335" text-anchor="end" class="label">Australia</text><rect x="180" y="246.7" width="5.5" height="37.7" rx="3" fill="#3f6f9f"/><text x="193.5358294683171" y="273.98333333333335" text-anchor="start" class="label">538</text><text x="168" y="323.65" text-anchor="end" class="label">Germany</text><rect x="180" y="296.3" width="1.1" height="37.7" rx="3" fill="#3f6f9f"/><text x="189.0804128144485" y="323.65" text-anchor="start" class="label">105</text><text x="180" y="366" text-anchor="start" class="label">This reflects reporting pipeline reach, not a balanced global survey.</text></svg>