<svg xmlns="http://www.w3.org/2000/svg" viewBox="0 0 900 470">
    <style>
      .bg { fill: #fffdf8; }
      .axis { stroke: #d8d0c2; stroke-width: 1; }
      .grid { stroke: #eee7da; stroke-width: 1; }
      .label { fill: #62706c; font: 12px system-ui, sans-serif; }
      .title { fill: #17201d; font: 700 18px system-ui, sans-serif; }
      .note { fill: #7a5d2a; font: 700 12px system-ui, sans-serif; }
    </style>
    <rect width="900" height="470" class="bg"/><text x="112" y="26" class="title">Median duration by common shape</text><text x="100" y="59.26875" text-anchor="end" class="label">changing</text><rect x="112" y="46.0" width="752.0" height="16.1" rx="3" fill="#8d6b2f"/><text x="872.0" y="59.26875" text-anchor="start" class="label">7m</text><text x="100" y="83.39375" text-anchor="end" class="label">diamond</text><rect x="112" y="70.1" width="537.1" height="16.1" rx="3" fill="#8d6b2f"/><text x="657.1428571428571" y="83.39375" text-anchor="start" class="label">5m</text><text x="100" y="107.51875" text-anchor="end" class="label">disk</text><rect x="112" y="94.2" width="429.7" height="16.1" rx="3" fill="#8d6b2f"/><text x="549.7142857142857" y="107.51875" text-anchor="start" class="label">4m</text><text x="100" y="131.64375" text-anchor="end" class="label">light</text><rect x="112" y="118.4" width="322.3" height="16.1" rx="3" fill="#8d6b2f"/><text x="442.2857142857143" y="131.64375" text-anchor="start" class="label">3m</text><text x="100" y="155.76875" text-anchor="end" class="label">triangle</text><rect x="112" y="142.5" width="322.3" height="16.1" rx="3" fill="#8d6b2f"/><text x="442.2857142857143" y="155.76875" text-anchor="start" class="label">3m</text><text x="100" y="179.89375" text-anchor="end" class="label">circle</text><rect x="112" y="166.6" width="322.3" height="16.1" rx="3" fill="#8d6b2f"/><text x="442.2857142857143" y="179.89375" text-anchor="start" class="label">3m</text><text x="100" y="204.01875" text-anchor="end" class="label">unknown</text><rect x="112" y="190.8" width="322.3" height="16.1" rx="3" fill="#8d6b2f"/><text x="442.2857142857143" y="204.01875" text-anchor="start" class="label">3m</text><text x="100" y="228.14375" text-anchor="end" class="label">other</text><rect x="112" y="214.9" width="322.3" height="16.1" rx="3" fill="#8d6b2f"/><text x="442.2857142857143" y="228.14375" text-anchor="start" class="label">3m</text><text x="100" y="252.26875" text-anchor="end" class="label">sphere</text><rect x="112" y="239.0" width="322.3" height="16.1" rx="3" fill="#8d6b2f"/><text x="442.2857142857143" y="252.26875" text-anchor="start" class="label">3m</text><text x="100" y="276.39375" text-anchor="end" class="label">oval</text><rect x="112" y="263.1" width="322.3" height="16.1" rx="3" fill="#8d6b2f"/><text x="442.2857142857143" y="276.39375" text-anchor="start" class="label">3m</text><text x="100" y="300.51875" text-anchor="end" class="label">formation</text><rect x="112" y="287.2" width="322.3" height="16.1" rx="3" fill="#8d6b2f"/><text x="442.2857142857143" y="300.51875" text-anchor="start" class="label">3m</text><text x="100" y="324.64375" text-anchor="end" class="label">cigar</text><rect x="112" y="311.4" width="322.3" height="16.1" rx="3" fill="#8d6b2f"/><text x="442.2857142857143" y="324.64375" text-anchor="start" class="label">3m</text><text x="100" y="348.76875" text-anchor="end" class="label">rectangle</text><rect x="112" y="335.5" width="322.3" height="16.1" rx="3" fill="#8d6b2f"/><text x="442.2857142857143" y="348.76875" text-anchor="start" class="label">3m</text><text x="100" y="372.89375" text-anchor="end" class="label">cylinder</text><rect x="112" y="359.6" width="322.3" height="16.1" rx="3" fill="#8d6b2f"/><text x="442.2857142857143" y="372.89375" text-anchor="start" class="label">3m</text><text x="100" y="397.01875" text-anchor="end" class="label">egg</text><rect x="112" y="383.8" width="322.3" height="16.1" rx="3" fill="#8d6b2f"/><text x="442.2857142857143" y="397.01875" text-anchor="start" class="label">3m</text><text x="100" y="421.14375" text-anchor="end" class="label">fireball</text><rect x="112" y="407.9" width="214.9" height="16.1" rx="3" fill="#8d6b2f"/><text x="334.85714285714283" y="421.14375" text-anchor="start" class="label">2m</text></svg>