<svg xmlns="http://www.w3.org/2000/svg" viewBox="0 0 900 470">
    <style>
      .bg { fill: #fffdf8; }
      .axis { stroke: #d8d0c2; stroke-width: 1; }
      .grid { stroke: #eee7da; stroke-width: 1; }
      .label { fill: #62706c; font: 12px system-ui, sans-serif; }
      .title { fill: #17201d; font: 700 18px system-ui, sans-serif; }
      .note { fill: #7a5d2a; font: 700 12px system-ui, sans-serif; }
    </style>
    <rect width="900" height="470" class="bg"/><text x="54" y="26" class="title">Reports by month and hour</text><rect x="54.0" y="42.0" width="33.1" height="31.2" fill="rgb(255,169,127)"/><rect x="88.1" y="42.0" width="33.1" height="31.2" fill="rgb(255,197,155)"/><rect x="122.2" y="42.0" width="33.1" height="31.2" fill="rgb(255,205,164)"/><rect x="156.2" y="42.0" width="33.1" height="31.2" fill="rgb(255,207,166)"/><rect x="190.3" y="42.0" width="33.1" height="31.2" fill="rgb(255,211,170)"/><rect x="224.4" y="42.0" width="33.1" height="31.2" fill="rgb(255,206,164)"/><rect x="258.5" y="42.0" width="33.1" height="31.2" fill="rgb(255,205,163)"/><rect x="292.6" y="42.0" width="33.1" height="31.2" fill="rgb(254,208,167)"/><rect x="326.7" y="42.0" width="33.1" height="31.2" fill="rgb(254,218,177)"/><rect x="360.8" y="42.0" width="33.1" height="31.2" fill="rgb(255,217,176)"/><rect x="394.8" y="42.0" width="33.1" height="31.2" fill="rgb(255,217,176)"/><rect x="428.9" y="42.0" width="33.1" height="31.2" fill="rgb(254,218,177)"/><rect x="463.0" y="42.0" width="33.1" height="31.2" fill="rgb(255,212,171)"/><rect x="497.1" y="42.0" width="33.1" height="31.2" fill="rgb(255,216,175)"/><rect x="531.2" y="42.0" width="33.1" height="31.2" fill="rgb(255,216,175)"/><rect x="565.2" y="42.0" width="33.1" height="31.2" fill="rgb(255,213,172)"/><rect x="599.3" y="42.0" width="33.1" height="31.2" fill="rgb(255,211,169)"/><rect x="633.4" y="42.0" width="33.1" height="31.2" fill="rgb(255,185,143)"/><rect x="667.5" y="42.0" width="33.1" height="31.2" fill="rgb(255,170,127)"/><rect x="701.6" y="42.0" width="33.1" height="31.2" fill="rgb(255,164,121)"/><rect x="735.7" y="42.0" width="33.1" height="31.2" fill="rgb(255,164,121)"/><rect x="769.8" y="42.0" width="33.1" height="31.2" fill="rgb(255,168,125)"/><rect x="803.8" y="42.0" width="33.1" height="31.2" fill="rgb(255,176,133)"/><rect x="837.9" y="42.0" width="33.1" height="31.2" fill="rgb(255,182,140)"/><rect x="54.0" y="74.2" width="33.1" height="31.2" fill="rgb(255,195,154)"/><rect x="88.1" y="74.2" width="33.1" height="31.2" fill="rgb(255,201,160)"/><rect x="122.2" y="74.2" width="33.1" height="31.2" fill="rgb(255,209,167)"/><rect x="156.2" y="74.2" width="33.1" height="31.2" fill="rgb(255,211,170)"/><rect x="190.3" y="74.2" width="33.1" height="31.2" fill="rgb(254,218,177)"/><rect x="224.4" y="74.2" width="33.1" height="31.2" fill="rgb(255,208,166)"/><rect x="258.5" y="74.2" width="33.1" height="31.2" fill="rgb(255,210,169)"/><rect x="292.6" y="74.2" width="33.1" height="31.2" fill="rgb(255,216,175)"/><rect x="326.7" y="74.2" width="33.1" height="31.2" fill="rgb(255,219,179)"/><rect x="360.8" y="74.2" width="33.1" height="31.2" fill="rgb(254,218,177)"/><rect x="394.8" y="74.2" width="33.1" height="31.2" fill="rgb(255,218,177)"/><rect x="428.9" y="74.2" width="33.1" height="31.2" fill="rgb(255,217,176)"/><rect x="463.0" y="74.2" width="33.1" height="31.2" fill="rgb(255,217,176)"/><rect x="497.1" y="74.2" width="33.1" height="31.2" fill="rgb(255,215,174)"/><rect x="531.2" y="74.2" width="33.1" height="31.2" fill="rgb(255,215,174)"/><rect x="565.2" y="74.2" width="33.1" height="31.2" fill="rgb(255,214,173)"/><rect x="599.3" y="74.2" width="33.1" height="31.2" fill="rgb(255,213,172)"/><rect x="633.4" y="74.2" width="33.1" height="31.2" fill="rgb(255,200,159)"/><rect x="667.5" y="74.2" width="33.1" height="31.2" fill="rgb(255,184,142)"/><rect x="701.6" y="74.2" width="33.1" height="31.2" fill="rgb(255,164,121)"/><rect x="735.7" y="74.2" width="33.1" height="31.2" fill="rgb(255,163,121)"/><rect x="769.8" y="74.2" width="33.1" height="31.2" fill="rgb(255,169,126)"/><rect x="803.8" y="74.2" width="33.1" height="31.2" fill="rgb(255,179,136)"/><rect x="837.9" y="74.2" width="33.1" height="31.2" fill="rgb(255,188,146)"/><rect x="54.0" y="106.3" width="33.1" height="31.2" fill="rgb(255,187,145)"/><rect x="88.1" y="106.3" width="33.1" height="31.2" fill="rgb(255,199,158)"/><rect x="122.2" y="106.3" width="33.1" height="31.2" fill="rgb(255,207,166)"/><rect x="156.2" y="106.3" width="33.1" height="31.2" fill="rgb(255,207,166)"/><rect x="190.3" y="106.3" width="33.1" height="31.2" fill="rgb(255,211,170)"/><rect x="224.4" y="106.3" width="33.1" height="31.2" fill="rgb(255,211,170)"/><rect x="258.5" y="106.3" width="33.1" height="31.2" fill="rgb(255,213,172)"/><rect x="292.6" y="106.3" width="33.1" height="31.2" fill="rgb(254,218,177)"/><rect x="326.7" y="106.3" width="33.1" height="31.2" fill="rgb(255,219,178)"/><rect x="360.8" y="106.3" width="33.1" height="31.2" fill="rgb(254,218,177)"/><rect x="394.8" y="106.3" width="33.1" height="31.2" fill="rgb(255,216,175)"/><rect x="428.9" y="106.3" width="33.1" height="31.2" fill="rgb(255,214,173)"/><rect x="463.0" y="106.3" width="33.1" height="31.2" fill="rgb(255,214,173)"/><rect x="497.1" y="106.3" width="33.1" height="31.2" fill="rgb(255,211,170)"/><rect x="531.2" y="106.3" width="33.1" height="31.2" fill="rgb(255,210,169)"/><rect x="565.2" y="106.3" width="33.1" height="31.2" fill="rgb(255,212,171)"/><rect x="599.3" y="106.3" width="33.1" height="31.2" fill="rgb(255,210,169)"/><rect x="633.4" y="106.3" width="33.1" height="31.2" fill="rgb(255,208,167)"/><rect x="667.5" y="106.3" width="33.1" height="31.2" fill="rgb(255,192,150)"/><rect x="701.6" y="106.3" width="33.1" height="31.2" fill="rgb(255,167,124)"/><rect x="735.7" y="106.3" width="33.1" height="31.2" fill="rgb(255,153,110)"/><rect x="769.8" y="106.3" width="33.1" height="31.2" fill="rgb(255,155,112)"/><rect x="803.8" y="106.3" width="33.1" height="31.2" fill="rgb(255,164,121)"/><rect x="837.9" y="106.3" width="33.1" height="31.2" fill="rgb(255,176,133)"/><rect x="54.0" y="138.5" width="33.1" height="31.2" fill="rgb(255,186,144)"/><rect x="88.1" y="138.5" width="33.1" height="31.2" fill="rgb(255,197,155)"/><rect x="122.2" y="138.5" width="33.1" height="31.2" fill="rgb(255,203,162)"/><rect x="156.2" y="138.5" width="33.1" height="31.2" fill="rgb(255,207,165)"/><rect x="190.3" y="138.5" width="33.1" height="31.2" fill="rgb(255,212,171)"/><rect x="224.4" y="138.5" width="33.1" height="31.2" fill="rgb(255,214,173)"/><rect x="258.5" y="138.5" width="33.1" height="31.2" fill="rgb(255,219,178)"/><rect x="292.6" y="138.5" width="33.1" height="31.2" fill="rgb(255,221,181)"/><rect x="326.7" y="138.5" width="33.1" height="31.2" fill="rgb(255,216,175)"/><rect x="360.8" y="138.5" width="33.1" height="31.2" fill="rgb(255,217,176)"/><rect x="394.8" y="138.5" width="33.1" height="31.2" fill="rgb(255,214,173)"/><rect x="428.9" y="138.5" width="33.1" height="31.2" fill="rgb(255,213,172)"/><rect x="463.0" y="138.5" width="33.1" height="31.2" fill="rgb(255,211,170)"/><rect x="497.1" y="138.5" width="33.1" height="31.2" fill="rgb(255,209,168)"/><rect x="531.2" y="138.5" width="33.1" height="31.2" fill="rgb(255,212,171)"/><rect x="565.2" y="138.5" width="33.1" height="31.2" fill="rgb(255,212,171)"/><rect x="599.3" y="138.5" width="33.1" height="31.2" fill="rgb(255,212,171)"/><rect x="633.4" y="138.5" width="33.1" height="31.2" fill="rgb(255,209,168)"/><rect x="667.5" y="138.5" width="33.1" height="31.2" fill="rgb(255,206,165)"/><rect x="701.6" y="138.5" width="33.1" height="31.2" fill="rgb(255,196,154)"/><rect x="735.7" y="138.5" width="33.1" height="31.2" fill="rgb(255,161,118)"/><rect x="769.8" y="138.5" width="33.1" height="31.2" fill="rgb(255,139,96)"/><rect x="803.8" y="138.5" width="33.1" height="31.2" fill="rgb(255,150,107)"/><rect x="837.9" y="138.5" width="33.1" height="31.2" fill="rgb(255,167,124)"/><rect x="54.0" y="170.7" width="33.1" height="31.2" fill="rgb(255,184,142)"/><rect x="88.1" y="170.7" width="33.1" height="31.2" fill="rgb(255,196,154)"/><rect x="122.2" y="170.7" width="33.1" height="31.2" fill="rgb(255,202,161)"/><rect x="156.2" y="170.7" width="33.1" height="31.2" fill="rgb(255,204,163)"/><rect x="190.3" y="170.7" width="33.1" height="31.2" fill="rgb(255,207,166)"/><rect x="224.4" y="170.7" width="33.1" height="31.2" fill="rgb(255,216,175)"/><rect x="258.5" y="170.7" width="33.1" height="31.2" fill="rgb(255,227,186)"/><rect x="292.6" y="170.7" width="33.1" height="31.2" fill="rgb(255,225,184)"/><rect x="326.7" y="170.7" width="33.1" height="31.2" fill="rgb(255,221,181)"/><rect x="360.8" y="170.7" width="33.1" height="31.2" fill="rgb(255,215,174)"/><rect x="394.8" y="170.7" width="33.1" height="31.2" fill="rgb(255,213,172)"/><rect x="428.9" y="170.7" width="33.1" height="31.2" fill="rgb(255,214,173)"/><rect x="463.0" y="170.7" width="33.1" height="31.2" fill="rgb(255,209,168)"/><rect x="497.1" y="170.7" width="33.1" height="31.2" fill="rgb(255,208,167)"/><rect x="531.2" y="170.7" width="33.1" height="31.2" fill="rgb(255,209,168)"/><rect x="565.2" y="170.7" width="33.1" height="31.2" fill="rgb(255,212,171)"/><rect x="599.3" y="170.7" width="33.1" height="31.2" fill="rgb(255,210,169)"/><rect x="633.4" y="170.7" width="33.1" height="31.2" fill="rgb(255,208,167)"/><rect x="667.5" y="170.7" width="33.1" height="31.2" fill="rgb(255,208,167)"/><rect x="701.6" y="170.7" width="33.1" height="31.2" fill="rgb(255,199,158)"/><rect x="735.7" y="170.7" width="33.1" height="31.2" fill="rgb(255,176,133)"/><rect x="769.8" y="170.7" width="33.1" height="31.2" fill="rgb(255,147,104)"/><rect x="803.8" y="170.7" width="33.1" height="31.2" fill="rgb(255,149,106)"/><rect x="837.9" y="170.7" width="33.1" height="31.2" fill="rgb(255,163,120)"/><rect x="54.0" y="202.8" width="33.1" height="31.2" fill="rgb(255,166,124)"/><rect x="88.1" y="202.8" width="33.1" height="31.2" fill="rgb(255,182,140)"/><rect x="122.2" y="202.8" width="33.1" height="31.2" fill="rgb(255,187,145)"/><rect x="156.2" y="202.8" width="33.1" height="31.2" fill="rgb(255,192,151)"/><rect x="190.3" y="202.8" width="33.1" height="31.2" fill="rgb(255,206,164)"/><rect x="224.4" y="202.8" width="33.1" height="31.2" fill="rgb(255,215,174)"/><rect x="258.5" y="202.8" width="33.1" height="31.2" fill="rgb(255,220,179)"/><rect x="292.6" y="202.8" width="33.1" height="31.2" fill="rgb(255,221,180)"/><rect x="326.7" y="202.8" width="33.1" height="31.2" fill="rgb(254,218,177)"/><rect x="360.8" y="202.8" width="33.1" height="31.2" fill="rgb(255,213,172)"/><rect x="394.8" y="202.8" width="33.1" height="31.2" fill="rgb(255,204,162)"/><rect x="428.9" y="202.8" width="33.1" height="31.2" fill="rgb(255,206,165)"/><rect x="463.0" y="202.8" width="33.1" height="31.2" fill="rgb(255,196,154)"/><rect x="497.1" y="202.8" width="33.1" height="31.2" fill="rgb(255,200,158)"/><rect x="531.2" y="202.8" width="33.1" height="31.2" fill="rgb(255,202,161)"/><rect x="565.2" y="202.8" width="33.1" height="31.2" fill="rgb(254,198,157)"/><rect x="599.3" y="202.8" width="33.1" height="31.2" fill="rgb(255,201,160)"/><rect x="633.4" y="202.8" width="33.1" height="31.2" fill="rgb(255,199,157)"/><rect x="667.5" y="202.8" width="33.1" height="31.2" fill="rgb(255,196,154)"/><rect x="701.6" y="202.8" width="33.1" height="31.2" fill="rgb(255,186,144)"/><rect x="735.7" y="202.8" width="33.1" height="31.2" fill="rgb(255,167,124)"/><rect x="769.8" y="202.8" width="33.1" height="31.2" fill="rgb(255,135,91)"/><rect x="803.8" y="202.8" width="33.1" height="31.2" fill="rgb(255,122,78)"/><rect x="837.9" y="202.8" width="33.1" height="31.2" fill="rgb(255,137,93)"/><rect x="54.0" y="235.0" width="33.1" height="31.2" fill="rgb(255,159,116)"/><rect x="88.1" y="235.0" width="33.1" height="31.2" fill="rgb(255,173,131)"/><rect x="122.2" y="235.0" width="33.1" height="31.2" fill="rgb(254,186,144)"/><rect x="156.2" y="235.0" width="33.1" height="31.2" fill="rgb(255,191,149)"/><rect x="190.3" y="235.0" width="33.1" height="31.2" fill="rgb(255,202,161)"/><rect x="224.4" y="235.0" width="33.1" height="31.2" fill="rgb(255,212,171)"/><rect x="258.5" y="235.0" width="33.1" height="31.2" fill="rgb(255,225,184)"/><rect x="292.6" y="235.0" width="33.1" height="31.2" fill="rgb(255,222,182)"/><rect x="326.7" y="235.0" width="33.1" height="31.2" fill="rgb(255,219,178)"/><rect x="360.8" y="235.0" width="33.1" height="31.2" fill="rgb(255,213,172)"/><rect x="394.8" y="235.0" width="33.1" height="31.2" fill="rgb(255,207,166)"/><rect x="428.9" y="235.0" width="33.1" height="31.2" fill="rgb(255,207,166)"/><rect x="463.0" y="235.0" width="33.1" height="31.2" fill="rgb(255,204,163)"/><rect x="497.1" y="235.0" width="33.1" height="31.2" fill="rgb(255,204,163)"/><rect x="531.2" y="235.0" width="33.1" height="31.2" fill="rgb(255,201,159)"/><rect x="565.2" y="235.0" width="33.1" height="31.2" fill="rgb(255,202,161)"/><rect x="599.3" y="235.0" width="33.1" height="31.2" fill="rgb(255,207,166)"/><rect x="633.4" y="235.0" width="33.1" height="31.2" fill="rgb(255,203,162)"/><rect x="667.5" y="235.0" width="33.1" height="31.2" fill="rgb(255,196,155)"/><rect x="701.6" y="235.0" width="33.1" height="31.2" fill="rgb(255,188,146)"/><rect x="735.7" y="235.0" width="33.1" height="31.2" fill="rgb(255,164,121)"/><rect x="769.8" y="235.0" width="33.1" height="31.2" fill="rgb(255,113,68)"/><rect x="803.8" y="235.0" width="33.1" height="31.2" fill="rgb(255,98,53)"/><rect x="837.9" y="235.0" width="33.1" height="31.2" fill="rgb(255,125,81)"/><rect x="54.0" y="267.2" width="33.1" height="31.2" fill="rgb(255,166,123)"/><rect x="88.1" y="267.2" width="33.1" height="31.2" fill="rgb(255,180,137)"/><rect x="122.2" y="267.2" width="33.1" height="31.2" fill="rgb(255,189,147)"/><rect x="156.2" y="267.2" width="33.1" height="31.2" fill="rgb(255,195,153)"/><rect x="190.3" y="267.2" width="33.1" height="31.2" fill="rgb(255,201,159)"/><rect x="224.4" y="267.2" width="33.1" height="31.2" fill="rgb(255,201,160)"/><rect x="258.5" y="267.2" width="33.1" height="31.2" fill="rgb(255,216,175)"/><rect x="292.6" y="267.2" width="33.1" height="31.2" fill="rgb(255,223,182)"/><rect x="326.7" y="267.2" width="33.1" height="31.2" fill="rgb(254,219,178)"/><rect x="360.8" y="267.2" width="33.1" height="31.2" fill="rgb(255,213,172)"/><rect x="394.8" y="267.2" width="33.1" height="31.2" fill="rgb(255,207,165)"/><rect x="428.9" y="267.2" width="33.1" height="31.2" fill="rgb(255,206,165)"/><rect x="463.0" y="267.2" width="33.1" height="31.2" fill="rgb(255,204,163)"/><rect x="497.1" y="267.2" width="33.1" height="31.2" fill="rgb(255,206,165)"/><rect x="531.2" y="267.2" width="33.1" height="31.2" fill="rgb(255,208,166)"/><rect x="565.2" y="267.2" width="33.1" height="31.2" fill="rgb(255,205,164)"/><rect x="599.3" y="267.2" width="33.1" height="31.2" fill="rgb(255,207,166)"/><rect x="633.4" y="267.2" width="33.1" height="31.2" fill="rgb(255,203,161)"/><rect x="667.5" y="267.2" width="33.1" height="31.2" fill="rgb(255,198,157)"/><rect x="701.6" y="267.2" width="33.1" height="31.2" fill="rgb(255,185,143)"/><rect x="735.7" y="267.2" width="33.1" height="31.2" fill="rgb(255,151,108)"/><rect x="769.8" y="267.2" width="33.1" height="31.2" fill="rgb(255,118,74)"/><rect x="803.8" y="267.2" width="33.1" height="31.2" fill="rgb(255,118,74)"/><rect x="837.9" y="267.2" width="33.1" height="31.2" fill="rgb(255,138,95)"/><rect x="54.0" y="299.3" width="33.1" height="31.2" fill="rgb(255,183,140)"/><rect x="88.1" y="299.3" width="33.1" height="31.2" fill="rgb(255,191,149)"/><rect x="122.2" y="299.3" width="33.1" height="31.2" fill="rgb(255,199,158)"/><rect x="156.2" y="299.3" width="33.1" height="31.2" fill="rgb(255,199,158)"/><rect x="190.3" y="299.3" width="33.1" height="31.2" fill="rgb(255,202,161)"/><rect x="224.4" y="299.3" width="33.1" height="31.2" fill="rgb(255,199,158)"/><rect x="258.5" y="299.3" width="33.1" height="31.2" fill="rgb(255,208,167)"/><rect x="292.6" y="299.3" width="33.1" height="31.2" fill="rgb(255,214,173)"/><rect x="326.7" y="299.3" width="33.1" height="31.2" fill="rgb(255,215,174)"/><rect x="360.8" y="299.3" width="33.1" height="31.2" fill="rgb(255,212,171)"/><rect x="394.8" y="299.3" width="33.1" height="31.2" fill="rgb(255,210,169)"/><rect x="428.9" y="299.3" width="33.1" height="31.2" fill="rgb(255,212,171)"/><rect x="463.0" y="299.3" width="33.1" height="31.2" fill="rgb(255,210,168)"/><rect x="497.1" y="299.3" width="33.1" height="31.2" fill="rgb(255,213,172)"/><rect x="531.2" y="299.3" width="33.1" height="31.2" fill="rgb(255,210,169)"/><rect x="565.2" y="299.3" width="33.1" height="31.2" fill="rgb(255,209,167)"/><rect x="599.3" y="299.3" width="33.1" height="31.2" fill="rgb(255,207,166)"/><rect x="633.4" y="299.3" width="33.1" height="31.2" fill="rgb(255,201,159)"/><rect x="667.5" y="299.3" width="33.1" height="31.2" fill="rgb(255,192,151)"/><rect x="701.6" y="299.3" width="33.1" height="31.2" fill="rgb(255,161,118)"/><rect x="735.7" y="299.3" width="33.1" height="31.2" fill="rgb(255,135,91)"/><rect x="769.8" y="299.3" width="33.1" height="31.2" fill="rgb(255,129,85)"/><rect x="803.8" y="299.3" width="33.1" height="31.2" fill="rgb(255,145,102)"/><rect x="837.9" y="299.3" width="33.1" height="31.2" fill="rgb(255,159,116)"/><rect x="54.0" y="331.5" width="33.1" height="31.2" fill="rgb(255,186,144)"/><rect x="88.1" y="331.5" width="33.1" height="31.2" fill="rgb(255,189,147)"/><rect x="122.2" y="331.5" width="33.1" height="31.2" fill="rgb(255,197,155)"/><rect x="156.2" y="331.5" width="33.1" height="31.2" fill="rgb(255,203,161)"/><rect x="190.3" y="331.5" width="33.1" height="31.2" fill="rgb(255,207,166)"/><rect x="224.4" y="331.5" width="33.1" height="31.2" fill="rgb(255,205,163)"/><rect x="258.5" y="331.5" width="33.1" height="31.2" fill="rgb(255,201,160)"/><rect x="292.6" y="331.5" width="33.1" height="31.2" fill="rgb(255,207,165)"/><rect x="326.7" y="331.5" width="33.1" height="31.2" fill="rgb(255,211,169)"/><rect x="360.8" y="331.5" width="33.1" height="31.2" fill="rgb(255,211,170)"/><rect x="394.8" y="331.5" width="33.1" height="31.2" fill="rgb(255,211,169)"/><rect x="428.9" y="331.5" width="33.1" height="31.2" fill="rgb(255,214,173)"/><rect x="463.0" y="331.5" width="33.1" height="31.2" fill="rgb(255,213,172)"/><rect x="497.1" y="331.5" width="33.1" height="31.2" fill="rgb(255,212,171)"/><rect x="531.2" y="331.5" width="33.1" height="31.2" fill="rgb(255,209,167)"/><rect x="565.2" y="331.5" width="33.1" height="31.2" fill="rgb(254,208,167)"/><rect x="599.3" y="331.5" width="33.1" height="31.2" fill="rgb(255,201,160)"/><rect x="633.4" y="331.5" width="33.1" height="31.2" fill="rgb(255,196,154)"/><rect x="667.5" y="331.5" width="33.1" height="31.2" fill="rgb(255,177,135)"/><rect x="701.6" y="331.5" width="33.1" height="31.2" fill="rgb(255,147,104)"/><rect x="735.7" y="331.5" width="33.1" height="31.2" fill="rgb(255,138,95)"/><rect x="769.8" y="331.5" width="33.1" height="31.2" fill="rgb(255,145,102)"/><rect x="803.8" y="331.5" width="33.1" height="31.2" fill="rgb(255,154,111)"/><rect x="837.9" y="331.5" width="33.1" height="31.2" fill="rgb(255,169,126)"/><rect x="54.0" y="363.7" width="33.1" height="31.2" fill="rgb(255,187,145)"/><rect x="88.1" y="363.7" width="33.1" height="31.2" fill="rgb(255,196,154)"/><rect x="122.2" y="363.7" width="33.1" height="31.2" fill="rgb(255,201,160)"/><rect x="156.2" y="363.7" width="33.1" height="31.2" fill="rgb(255,207,165)"/><rect x="190.3" y="363.7" width="33.1" height="31.2" fill="rgb(255,208,167)"/><rect x="224.4" y="363.7" width="33.1" height="31.2" fill="rgb(255,197,156)"/><rect x="258.5" y="363.7" width="33.1" height="31.2" fill="rgb(255,205,163)"/><rect x="292.6" y="363.7" width="33.1" height="31.2" fill="rgb(255,215,174)"/><rect x="326.7" y="363.7" width="33.1" height="31.2" fill="rgb(255,220,180)"/><rect x="360.8" y="363.7" width="33.1" height="31.2" fill="rgb(255,217,176)"/><rect x="394.8" y="363.7" width="33.1" height="31.2" fill="rgb(255,217,176)"/><rect x="428.9" y="363.7" width="33.1" height="31.2" fill="rgb(255,216,175)"/><rect x="463.0" y="363.7" width="33.1" height="31.2" fill="rgb(255,215,174)"/><rect x="497.1" y="363.7" width="33.1" height="31.2" fill="rgb(255,216,175)"/><rect x="531.2" y="363.7" width="33.1" height="31.2" fill="rgb(255,216,175)"/><rect x="565.2" y="363.7" width="33.1" height="31.2" fill="rgb(255,211,170)"/><rect x="599.3" y="363.7" width="33.1" height="31.2" fill="rgb(255,200,159)"/><rect x="633.4" y="363.7" width="33.1" height="31.2" fill="rgb(254,177,135)"/><rect x="667.5" y="363.7" width="33.1" height="31.2" fill="rgb(255,154,110)"/><rect x="701.6" y="363.7" width="33.1" height="31.2" fill="rgb(255,148,105)"/><rect x="735.7" y="363.7" width="33.1" height="31.2" fill="rgb(255,155,112)"/><rect x="769.8" y="363.7" width="33.1" height="31.2" fill="rgb(255,158,115)"/><rect x="803.8" y="363.7" width="33.1" height="31.2" fill="rgb(255,166,123)"/><rect x="837.9" y="363.7" width="33.1" height="31.2" fill="rgb(255,173,131)"/><rect x="54.0" y="395.8" width="33.1" height="31.2" fill="rgb(255,192,150)"/><rect x="88.1" y="395.8" width="33.1" height="31.2" fill="rgb(255,201,159)"/><rect x="122.2" y="395.8" width="33.1" height="31.2" fill="rgb(255,205,164)"/><rect x="156.2" y="395.8" width="33.1" height="31.2" fill="rgb(255,210,168)"/><rect x="190.3" y="395.8" width="33.1" height="31.2" fill="rgb(255,209,168)"/><rect x="224.4" y="395.8" width="33.1" height="31.2" fill="rgb(255,204,163)"/><rect x="258.5" y="395.8" width="33.1" height="31.2" fill="rgb(255,202,161)"/><rect x="292.6" y="395.8" width="33.1" height="31.2" fill="rgb(255,211,170)"/><rect x="326.7" y="395.8" width="33.1" height="31.2" fill="rgb(255,219,178)"/><rect x="360.8" y="395.8" width="33.1" height="31.2" fill="rgb(255,221,180)"/><rect x="394.8" y="395.8" width="33.1" height="31.2" fill="rgb(255,218,177)"/><rect x="428.9" y="395.8" width="33.1" height="31.2" fill="rgb(255,217,176)"/><rect x="463.0" y="395.8" width="33.1" height="31.2" fill="rgb(255,216,175)"/><rect x="497.1" y="395.8" width="33.1" height="31.2" fill="rgb(255,219,178)"/><rect x="531.2" y="395.8" width="33.1" height="31.2" fill="rgb(254,219,178)"/><rect x="565.2" y="395.8" width="33.1" height="31.2" fill="rgb(255,213,172)"/><rect x="599.3" y="395.8" width="33.1" height="31.2" fill="rgb(255,202,161)"/><rect x="633.4" y="395.8" width="33.1" height="31.2" fill="rgb(255,182,140)"/><rect x="667.5" y="395.8" width="33.1" height="31.2" fill="rgb(255,168,126)"/><rect x="701.6" y="395.8" width="33.1" height="31.2" fill="rgb(255,164,121)"/><rect x="735.7" y="395.8" width="33.1" height="31.2" fill="rgb(255,164,121)"/><rect x="769.8" y="395.8" width="33.1" height="31.2" fill="rgb(255,166,124)"/><rect x="803.8" y="395.8" width="33.1" height="31.2" fill="rgb(255,170,127)"/><rect x="837.9" y="395.8" width="33.1" height="31.2" fill="rgb(255,171,129)"/><text x="44" y="62.90833333333333" text-anchor="end" class="label">Jan</text><text x="44" y="95.07499999999999" text-anchor="end" class="label">Feb</text><text x="44" y="127.24166666666666" text-anchor="end" class="label">Mar</text><text x="44" y="159.40833333333333" text-anchor="end" class="label">Apr</text><text x="44" y="191.575" text-anchor="end" class="label">May</text><text x="44" y="223.74166666666665" text-anchor="end" class="label">Jun</text><text x="44" y="255.90833333333333" text-anchor="end" class="label">Jul</text><text x="44" y="288.07499999999993" text-anchor="end" class="label">Aug</text><text x="44" y="320.2416666666667" text-anchor="end" class="label">Sep</text><text x="44" y="352.4083333333333" text-anchor="end" class="label">Oct</text><text x="44" y="384.57499999999993" text-anchor="end" class="label">Nov</text><text x="44" y="416.7416666666667" text-anchor="end" class="label">Dec</text><text x="54.0" y="454" text-anchor="middle" class="label">0:00</text><text x="258.5" y="454" text-anchor="middle" class="label">6:00</text><text x="463.0" y="454" text-anchor="middle" class="label">12:00</text><text x="667.5" y="454" text-anchor="middle" class="label">18:00</text><text x="837.9166666666667" y="454" text-anchor="middle" class="label">23:00</text></svg>