<svg xmlns="http://www.w3.org/2000/svg" viewBox="0 0 900 270">
    <style>
      .bg { fill: #fffdf8; }
      .axis { stroke: #d8d0c2; stroke-width: 1; }
      .grid { stroke: #eee7da; stroke-width: 1; }
      .label { fill: #62706c; font: 12px system-ui, sans-serif; }
      .title { fill: #17201d; font: 700 18px system-ui, sans-serif; }
      .note { fill: #7a5d2a; font: 700 12px system-ui, sans-serif; }
    </style>
    <rect width="900" height="270" class="bg"/><text x="70" y="30" class="title">Shape labels grouped by visual impression</text><text x="70" y="54" text-anchor="start" class="label">Broad analytical grouping of reported labels, not proof of physical object type.</text><rect x="70.0" y="78" width="228.0" height="36" fill="#d65d47"/><text x="184.0" y="101" text-anchor="middle" fill="#fffdf8" font="700 12px system-ui, sans-serif">30.0%</text><rect x="298.0" y="78" width="214.8" height="36" fill="#117c78"/><text x="405.4" y="101" text-anchor="middle" fill="#fffdf8" font="700 12px system-ui, sans-serif">28.3%</text><rect x="512.8" y="78" width="173.6" height="36" fill="#8d6b2f"/><text x="599.6" y="101" text-anchor="middle" fill="#fffdf8" font="700 12px system-ui, sans-serif">22.8%</text><rect x="686.4" y="78" width="143.6" height="36" fill="#3f6f9f"/><text x="758.2" y="101" text-anchor="middle" fill="#fffdf8" font="700 12px system-ui, sans-serif">18.9%</text><rect x="70" y="78" width="760" height="36" fill="none" stroke="#d8d0c2"/><rect x="70" y="148" width="13" height="13" rx="3" fill="#d65d47"/><text x="92" y="160" text-anchor="start" class="label">lights / flashes</text><text x="92" y="179" text-anchor="start" class="label">24,101 reports (30.0%)</text><rect x="460" y="148" width="13" height="13" rx="3" fill="#117c78"/><text x="482" y="160" text-anchor="start" class="label">round forms</text><text x="482" y="179" text-anchor="start" class="label">22,700 reports (28.3%)</text><rect x="70" y="192" width="13" height="13" rx="3" fill="#8d6b2f"/><text x="92" y="204" text-anchor="start" class="label">uncertain labels</text><text x="92" y="223" text-anchor="start" class="label">18,350 reports (22.8%)</text><rect x="460" y="192" width="13" height="13" rx="3" fill="#3f6f9f"/><text x="482" y="204" text-anchor="start" class="label">structured forms</text><text x="482" y="223" text-anchor="start" class="label">15,181 reports (18.9%)</text></svg>