<svg xmlns="http://www.w3.org/2000/svg" viewBox="0 0 900 460">
    <style>
      .bg { fill: #fffdf8; }
      .axis { stroke: #d8d0c2; stroke-width: 1; }
      .grid { stroke: #eee7da; stroke-width: 1; }
      .label { fill: #62706c; font: 12px system-ui, sans-serif; }
      .title { fill: #17201d; font: 700 18px system-ui, sans-serif; }
      .note { fill: #7a5d2a; font: 700 12px system-ui, sans-serif; }
    </style>
    <rect width="900" height="460" class="bg"/><text x="120" y="26" class="title">US states: reports per million</text><text x="108" y="63.325" text-anchor="end" class="label">WA</text><rect x="120" y="46.0" width="740.0" height="23.5" rx="3" fill="#d65d47"/><text x="868.0" y="63.325" text-anchor="start" class="label">590</text><text x="108" y="94.825" text-anchor="end" class="label">MT</text><rect x="120" y="77.5" width="606.2" height="23.5" rx="3" fill="#d65d47"/><text x="734.165196782425" y="94.825" text-anchor="start" class="label">483</text><text x="108" y="126.325" text-anchor="end" class="label">OR</text><rect x="120" y="109.0" width="572.2" height="23.5" rx="3" fill="#d65d47"/><text x="700.1553396221252" y="126.325" text-anchor="start" class="label">456</text><text x="108" y="157.825" text-anchor="end" class="label">AK</text><rect x="120" y="140.5" width="563.6" height="23.5" rx="3" fill="#d65d47"/><text x="691.5502539504962" y="157.825" text-anchor="start" class="label">449</text><text x="108" y="189.325" text-anchor="end" class="label">ME</text><rect x="120" y="172.0" width="527.1" height="23.5" rx="3" fill="#d65d47"/><text x="655.0595338923353" y="189.325" text-anchor="start" class="label">420</text><text x="108" y="220.825" text-anchor="end" class="label">VT</text><rect x="120" y="203.5" width="521.3" height="23.5" rx="3" fill="#d65d47"/><text x="649.3391352179069" y="220.825" text-anchor="start" class="label">416</text><text x="108" y="252.325" text-anchor="end" class="label">AZ</text><rect x="120" y="235.0" width="473.9" height="23.5" rx="3" fill="#d65d47"/><text x="601.8500551970211" y="252.325" text-anchor="start" class="label">378</text><text x="108" y="283.825" text-anchor="end" class="label">NH</text><rect x="120" y="266.5" width="463.2" height="23.5" rx="3" fill="#d65d47"/><text x="591.198232627489" y="283.825" text-anchor="start" class="label">369</text><text x="108" y="315.325" text-anchor="end" class="label">NM</text><rect x="120" y="298.0" width="438.7" height="23.5" rx="3" fill="#d65d47"/><text x="566.7124780975621" y="315.325" text-anchor="start" class="label">350</text><text x="108" y="346.825" text-anchor="end" class="label">ID</text><rect x="120" y="329.5" width="417.0" height="23.5" rx="3" fill="#d65d47"/><text x="545.0124743154456" y="346.825" text-anchor="start" class="label">332</text><text x="108" y="378.325" text-anchor="end" class="label">WY</text><rect x="120" y="361.0" width="389.6" height="23.5" rx="3" fill="#d65d47"/><text x="517.5727947721057" y="378.325" text-anchor="start" class="label">310</text><text x="108" y="409.825" text-anchor="end" class="label">NV</text><rect x="120" y="392.5" width="373.1" height="23.5" rx="3" fill="#d65d47"/><text x="501.0823924219422" y="409.825" text-anchor="start" class="label">297</text><text x="120" y="446" text-anchor="start" class="label">Per-capita view (per million residents).</text></svg>