<svg xmlns="http://www.w3.org/2000/svg" viewBox="0 0 900 440">
      
    <style>
      .bg { fill: #fffdf8; }
      .axis { stroke: #d8d0c2; stroke-width: 1; }
      .grid { stroke: #eee7da; stroke-width: 1; }
      .label { fill: #62706c; font: 12px system-ui, sans-serif; }
      .title { fill: #17201d; font: 700 18px system-ui, sans-serif; }
      .note { fill: #7a5d2a; font: 700 12px system-ui, sans-serif; }
    </style>
    
      <rect width="900" height="440" class="bg"/>
      <text x="62" y="26" class="title">Annual reports (annotated)</text>
      <line x1="92.1" y1="42" x2="92.1" y2="392" class="grid"/><text x="92.14814814814815" y="422" text-anchor="middle" class="label">1910</text><line x1="242.9" y1="42" x2="242.9" y2="392" class="grid"/><text x="242.88888888888889" y="422" text-anchor="middle" class="label">1930</text><line x1="393.6" y1="42" x2="393.6" y2="392" class="grid"/><text x="393.6296296296296" y="422" text-anchor="middle" class="label">1950</text><line x1="544.4" y1="42" x2="544.4" y2="392" class="grid"/><text x="544.3703703703703" y="422" text-anchor="middle" class="label">1970</text><line x1="695.1" y1="42" x2="695.1" y2="392" class="grid"/><text x="695.1111111111111" y="422" text-anchor="middle" class="label">1990</text><line x1="845.9" y1="42" x2="845.9" y2="392" class="grid"/><text x="845.8518518518518" y="422" text-anchor="middle" class="label">2010</text><line x1="62" y1="392.0" x2="876" y2="392.0" class="grid"/><text x="48" y="396.0" text-anchor="end" class="label">0</text><line x1="62" y1="273.0" x2="876" y2="273.0" class="grid"/><text x="48" y="277.0494834148994" text-anchor="end" class="label">2500</text><line x1="62" y1="154.1" x2="876" y2="154.1" class="grid"/><text x="48" y="158.0989668297988" text-anchor="end" class="label">5000</text><line x1="62" y1="35.1" x2="876" y2="35.1" class="grid"/><text x="48" y="39.14845024469821" text-anchor="end" class="label">7500</text>
      <polygon points="62.0,392.0 62.0,392.0 69.5,392.0 77.1,392.0 84.6,392.0 92.1,391.9 99.7,392.0 107.2,392.0 114.8,392.0 122.3,392.0 129.8,392.0 137.4,392.0 144.9,392.0 152.4,392.0 160.0,392.0 167.5,392.0 175.1,392.0 182.6,392.0 190.1,392.0 197.7,392.0 205.2,392.0 212.7,392.0 220.3,392.0 227.8,392.0 235.4,392.0 242.9,392.0 250.4,391.9 258.0,392.0 265.5,392.0 273.0,392.0 280.6,392.0 288.1,391.9 295.6,391.9 303.2,392.0 310.7,391.9 318.3,392.0 325.8,392.0 333.3,391.9 340.9,391.6 348.4,391.6 355.9,391.6 363.5,391.5 371.0,390.2 378.6,391.6 386.1,391.2 393.6,390.7 401.2,391.0 408.7,389.7 416.2,390.4 423.8,389.5 431.3,390.5 438.9,389.9 446.4,388.6 453.9,389.8 461.5,389.6 469.0,388.9 476.5,389.7 484.1,388.5 491.6,387.9 499.1,387.8 506.7,383.1 514.2,382.8 521.8,383.1 529.3,381.5 536.8,384.6 544.4,385.0 551.9,385.8 559.4,384.5 567.0,381.2 574.5,379.0 582.1,376.8 589.6,378.7 597.1,379.2 604.7,376.1 612.2,380.3 619.7,380.3 627.3,384.2 634.8,383.3 642.4,384.7 649.9,383.2 657.4,381.6 665.0,382.8 672.5,381.4 680.0,380.5 687.6,380.1 695.1,379.7 702.6,380.9 710.2,380.0 717.7,377.3 725.3,372.0 732.8,340.7 740.3,352.3 747.9,332.3 755.4,307.9 762.9,258.5 770.5,260.1 778.0,243.5 785.6,238.1 793.1,203.5 800.6,189.5 808.2,197.7 815.7,215.0 823.2,188.9 830.8,162.7 838.3,175.9 845.9,188.2 853.4,149.0 860.9,42.0 868.5,57.1 876.0,284.5 876.0,392.0" fill="rgba(63, 111, 159, 0.16)" stroke="none"/>
      <polyline points="62.0,392.0 69.5,392.0 77.1,392.0 84.6,392.0 92.1,391.9 99.7,392.0 107.2,392.0 114.8,392.0 122.3,392.0 129.8,392.0 137.4,392.0 144.9,392.0 152.4,392.0 160.0,392.0 167.5,392.0 175.1,392.0 182.6,392.0 190.1,392.0 197.7,392.0 205.2,392.0 212.7,392.0 220.3,392.0 227.8,392.0 235.4,392.0 242.9,392.0 250.4,391.9 258.0,392.0 265.5,392.0 273.0,392.0 280.6,392.0 288.1,391.9 295.6,391.9 303.2,392.0 310.7,391.9 318.3,392.0 325.8,392.0 333.3,391.9 340.9,391.6 348.4,391.6 355.9,391.6 363.5,391.5 371.0,390.2 378.6,391.6 386.1,391.2 393.6,390.7 401.2,391.0 408.7,389.7 416.2,390.4 423.8,389.5 431.3,390.5 438.9,389.9 446.4,388.6 453.9,389.8 461.5,389.6 469.0,388.9 476.5,389.7 484.1,388.5 491.6,387.9 499.1,387.8 506.7,383.1 514.2,382.8 521.8,383.1 529.3,381.5 536.8,384.6 544.4,385.0 551.9,385.8 559.4,384.5 567.0,381.2 574.5,379.0 582.1,376.8 589.6,378.7 597.1,379.2 604.7,376.1 612.2,380.3 619.7,380.3 627.3,384.2 634.8,383.3 642.4,384.7 649.9,383.2 657.4,381.6 665.0,382.8 672.5,381.4 680.0,380.5 687.6,380.1 695.1,379.7 702.6,380.9 710.2,380.0 717.7,377.3 725.3,372.0 732.8,340.7 740.3,352.3 747.9,332.3 755.4,307.9 762.9,258.5 770.5,260.1 778.0,243.5 785.6,238.1 793.1,203.5 800.6,189.5 808.2,197.7 815.7,215.0 823.2,188.9 830.8,162.7 838.3,175.9 845.9,188.2 853.4,149.0 860.9,42.0 868.5,57.1 876.0,284.5" fill="none" stroke="#3f6f9f" stroke-width="3"/>
      <line x1="634.8" y1="42" x2="634.8" y2="392" style="stroke:#d99a2b;stroke-width:2;stroke-dasharray:2 6;"/><text x="642.8" y="129.5" text-anchor="start" class="note" fill="#d99a2b">E.T.</text>
      <line x1="723.0" y1="42" x2="723.0" y2="392" style="stroke:#17201d;stroke-width:2;"/><text x="731.0" y="84.0" text-anchor="start" class="note" fill="#17201d">The X-Files</text>
      <line x1="732.8" y1="42" x2="732.8" y2="392" style="stroke:#d65d47;stroke-width:2;stroke-dasharray:6 5;"/><text x="740.8" y="154.0" text-anchor="start" class="note" fill="#d65d47">1995 split</text>
      <line x1="62" y1="392" x2="876" y2="392" class="axis"/>
      <line x1="62" y1="42" x2="62" y2="392" class="axis"/>
    </svg>