<svg xmlns="http://www.w3.org/2000/svg" viewBox="0 0 900 520">
    <style>
      .bg { fill: #fffdf8; }
      .axis { stroke: #d8d0c2; stroke-width: 1; }
      .grid { stroke: #eee7da; stroke-width: 1; }
      .label { fill: #62706c; font: 12px system-ui, sans-serif; }
      .title { fill: #17201d; font: 700 18px system-ui, sans-serif; }
      .note { fill: #7a5d2a; font: 700 12px system-ui, sans-serif; }
    </style>
    <rect width="900" height="520" class="bg"/><text x="140" y="26" class="title">Duration distribution by shape (log scale)</text><line x1="140.0" y1="42" x2="140.0" y2="466" class="grid"/><text x="140.0" y="502" text-anchor="middle" class="label">1s</text><line x1="285.9" y1="42" x2="285.9" y2="466" class="grid"/><text x="285.8519184914593" y="502" text-anchor="middle" class="label">10s</text><line x1="399.3" y1="42" x2="399.3" y2="466" class="grid"/><text x="399.34677123644155" y="502" text-anchor="middle" class="label">1m</text><line x1="545.2" y1="42" x2="545.2" y2="466" class="grid"/><text x="545.1986897279007" y="502" text-anchor="middle" class="label">10m</text><line x1="658.7" y1="42" x2="658.7" y2="466" class="grid"/><text x="658.6935424728831" y="502" text-anchor="middle" class="label">1h</text><line x1="772.2" y1="42" x2="772.2" y2="466" class="grid"/><text x="772.1883952178654" y="502" text-anchor="middle" class="label">6h</text><line x1="860.0" y1="42" x2="860.0" y2="466" class="grid"/><text x="860.0" y="502" text-anchor="middle" class="label">24h</text><text x="128" y="58.65714285714286" text-anchor="end" class="label">changing</text><line x1="285.9" y1="58.7" x2="702.6" y2="58.7" stroke="#8d6b2f" stroke-width="2"/><rect x="443.3" y="52.0" width="157.4" height="13.3" fill="rgba(141,107,47,0.22)" stroke="#8d6b2f"/><line x1="522.6" y1="52.0" x2="522.6" y2="65.3" stroke="#8d6b2f" stroke-width="2"/><text x="128" y="88.94285714285714" text-anchor="end" class="label">diamond</text><line x1="241.9" y1="88.9" x2="684.4" y2="88.9" stroke="#8d6b2f" stroke-width="2"/><rect x="399.3" y="82.3" width="171.5" height="13.3" fill="rgba(141,107,47,0.22)" stroke="#8d6b2f"/><line x1="501.3" y1="82.3" x2="501.3" y2="95.6" stroke="#8d6b2f" stroke-width="2"/><text x="128" y="119.22857142857143" text-anchor="end" class="label">disk</text><line x1="241.9" y1="119.2" x2="658.7" y2="119.2" stroke="#8d6b2f" stroke-width="2"/><rect x="399.3" y="112.6" width="157.4" height="13.3" fill="rgba(141,107,47,0.22)" stroke="#8d6b2f"/><line x1="487.2" y1="112.6" x2="487.2" y2="125.9" stroke="#8d6b2f" stroke-width="2"/><text x="128" y="149.51428571428573" text-anchor="end" class="label">light</text><line x1="209.6" y1="149.5" x2="658.7" y2="149.5" stroke="#8d6b2f" stroke-width="2"/><rect x="355.4" y="142.9" width="215.4" height="13.3" fill="rgba(141,107,47,0.22)" stroke="#8d6b2f"/><line x1="468.9" y1="142.9" x2="468.9" y2="156.2" stroke="#8d6b2f" stroke-width="2"/><text x="128" y="179.8" text-anchor="end" class="label">triangle</text><line x1="241.9" y1="179.8" x2="647.1" y2="179.8" stroke="#8d6b2f" stroke-width="2"/><rect x="355.4" y="173.1" width="189.8" height="13.3" fill="rgba(141,107,47,0.22)" stroke="#8d6b2f"/><line x1="468.9" y1="173.1" x2="468.9" y2="186.5" stroke="#8d6b2f" stroke-width="2"/><text x="128" y="210.0857142857143" text-anchor="end" class="label">circle</text><line x1="209.6" y1="210.1" x2="658.7" y2="210.1" stroke="#8d6b2f" stroke-width="2"/><rect x="355.4" y="203.4" width="189.8" height="13.3" fill="rgba(141,107,47,0.22)" stroke="#8d6b2f"/><line x1="468.9" y1="203.4" x2="468.9" y2="216.7" stroke="#8d6b2f" stroke-width="2"/><text x="128" y="240.37142857142857" text-anchor="end" class="label">unknown</text><line x1="209.6" y1="240.4" x2="672.8" y2="240.4" stroke="#8d6b2f" stroke-width="2"/><rect x="355.4" y="233.7" width="215.4" height="13.3" fill="rgba(141,107,47,0.22)" stroke="#8d6b2f"/><line x1="468.9" y1="233.7" x2="468.9" y2="247.0" stroke="#8d6b2f" stroke-width="2"/><text x="128" y="270.65714285714284" text-anchor="end" class="label">other</text><line x1="209.6" y1="270.7" x2="658.7" y2="270.7" stroke="#8d6b2f" stroke-width="2"/><rect x="355.4" y="264.0" width="189.8" height="13.3" fill="rgba(141,107,47,0.22)" stroke="#8d6b2f"/><line x1="468.9" y1="264.0" x2="468.9" y2="277.3" stroke="#8d6b2f" stroke-width="2"/><text x="128" y="300.9428571428571" text-anchor="end" class="label">sphere</text><line x1="209.6" y1="300.9" x2="658.7" y2="300.9" stroke="#8d6b2f" stroke-width="2"/><rect x="355.4" y="294.3" width="189.8" height="13.3" fill="rgba(141,107,47,0.22)" stroke="#8d6b2f"/><line x1="468.9" y1="294.3" x2="468.9" y2="307.6" stroke="#8d6b2f" stroke-width="2"/><text x="128" y="331.2285714285714" text-anchor="end" class="label">oval</text><line x1="209.6" y1="331.2" x2="658.7" y2="331.2" stroke="#8d6b2f" stroke-width="2"/><rect x="355.4" y="324.6" width="189.8" height="13.3" fill="rgba(141,107,47,0.22)" stroke="#8d6b2f"/><line x1="468.9" y1="324.6" x2="468.9" y2="337.9" stroke="#8d6b2f" stroke-width="2"/><text x="128" y="361.5142857142857" text-anchor="end" class="label">formation</text><line x1="241.9" y1="361.5" x2="640.5" y2="361.5" stroke="#8d6b2f" stroke-width="2"/><rect x="355.4" y="354.9" width="189.8" height="13.3" fill="rgba(141,107,47,0.22)" stroke="#8d6b2f"/><line x1="468.9" y1="354.9" x2="468.9" y2="368.2" stroke="#8d6b2f" stroke-width="2"/><text x="128" y="391.79999999999995" text-anchor="end" class="label">cigar</text><line x1="209.6" y1="391.8" x2="640.5" y2="391.8" stroke="#8d6b2f" stroke-width="2"/><rect x="355.4" y="385.1" width="189.8" height="13.3" fill="rgba(141,107,47,0.22)" stroke="#8d6b2f"/><line x1="468.9" y1="385.1" x2="468.9" y2="398.5" stroke="#8d6b2f" stroke-width="2"/><text x="128" y="422.0857142857143" text-anchor="end" class="label">rectangle</text><line x1="209.6" y1="422.1" x2="640.5" y2="422.1" stroke="#8d6b2f" stroke-width="2"/><rect x="355.4" y="415.4" width="175.6" height="13.3" fill="rgba(141,107,47,0.22)" stroke="#8d6b2f"/><line x1="468.9" y1="415.4" x2="468.9" y2="428.7" stroke="#8d6b2f" stroke-width="2"/><text x="128" y="452.37142857142857" text-anchor="end" class="label">cylinder</text><line x1="241.9" y1="452.4" x2="658.7" y2="452.4" stroke="#8d6b2f" stroke-width="2"/><rect x="373.7" y="445.7" width="171.5" height="13.3" fill="rgba(141,107,47,0.22)" stroke="#8d6b2f"/><line x1="468.9" y1="445.7" x2="468.9" y2="459.0" stroke="#8d6b2f" stroke-width="2"/><text x="140" y="506" text-anchor="start" class="label">box = p25–p75, whiskers = p05–p95</text></svg>