<svg xmlns="http://www.w3.org/2000/svg" viewBox="0 0 900 440">
    <style>
      .bg { fill: #fffdf8; }
      .axis { stroke: #d8d0c2; stroke-width: 1; }
      .grid { stroke: #eee7da; stroke-width: 1; }
      .label { fill: #62706c; font: 12px system-ui, sans-serif; }
      .title { fill: #17201d; font: 700 18px system-ui, sans-serif; }
      .note { fill: #7a5d2a; font: 700 12px system-ui, sans-serif; }
    </style>
    <rect width="900" height="440" class="bg"/><text x="112" y="26" class="title">Top reported shapes</text><text x="100" y="65.91" text-anchor="end" class="label">light</text><rect x="112" y="46.0" width="760.0" height="28.2" rx="3" fill="#117c78"/><text x="880.0" y="65.91" text-anchor="start" class="label">16,565</text><text x="100" y="102.11000000000001" text-anchor="end" class="label">triangle</text><rect x="112" y="82.2" width="360.8" height="28.2" rx="3" fill="#117c78"/><text x="480.8451554482342" y="102.11000000000001" text-anchor="start" class="label">7,865</text><text x="100" y="138.31" text-anchor="end" class="label">circle</text><rect x="112" y="118.4" width="349.1" height="28.2" rx="3" fill="#117c78"/><text x="469.05402958044067" y="138.31" text-anchor="start" class="label">7,608</text><text x="100" y="174.51000000000002" text-anchor="end" class="label">unknown</text><rect x="112" y="154.6" width="344.8" height="28.2" rx="3" fill="#117c78"/><text x="464.83308179897375" y="174.51000000000002" text-anchor="start" class="label">7,516</text><text x="100" y="210.71" text-anchor="end" class="label">fireball</text><rect x="112" y="190.8" width="284.8" height="28.2" rx="3" fill="#117c78"/><text x="404.8222155146393" y="210.71" text-anchor="start" class="label">6,208</text><text x="100" y="246.91" text-anchor="end" class="label">other</text><rect x="112" y="227.0" width="259.9" height="28.2" rx="3" fill="#117c78"/><text x="379.86356776335646" y="246.91" text-anchor="start" class="label">5,664</text><text x="100" y="283.11000000000007" text-anchor="end" class="label">sphere</text><rect x="112" y="263.2" width="247.2" height="28.2" rx="3" fill="#117c78"/><text x="367.1548445517658" y="283.11000000000007" text-anchor="start" class="label">5,387</text><text x="100" y="319.31000000000006" text-anchor="end" class="label">disk</text><rect x="112" y="299.4" width="239.2" height="28.2" rx="3" fill="#117c78"/><text x="359.1717476607305" y="319.31000000000006" text-anchor="start" class="label">5,213</text><text x="100" y="355.51000000000005" text-anchor="end" class="label">oval</text><rect x="112" y="335.6" width="171.3" height="28.2" rx="3" fill="#117c78"/><text x="291.2695442197404" y="355.51000000000005" text-anchor="start" class="label">3,733</text><text x="100" y="391.71000000000004" text-anchor="end" class="label">formation</text><rect x="112" y="371.8" width="112.7" height="28.2" rx="3" fill="#117c78"/><text x="232.72683368548144" y="391.71000000000004" text-anchor="start" class="label">2,457</text></svg>