<svg xmlns="http://www.w3.org/2000/svg" viewBox="0 0 900 460">
    <style>
      .bg { fill: #fffdf8; }
      .axis { stroke: #d8d0c2; stroke-width: 1; }
      .grid { stroke: #eee7da; stroke-width: 1; }
      .label { fill: #62706c; font: 12px system-ui, sans-serif; }
      .title { fill: #17201d; font: 700 18px system-ui, sans-serif; }
      .note { fill: #7a5d2a; font: 700 12px system-ui, sans-serif; }
    </style>
    <rect width="900" height="460" class="bg"/><text x="120" y="26" class="title">US states: raw reports</text><text x="108" y="63.325" text-anchor="end" class="label">CA</text><rect x="120" y="46.0" width="740.0" height="23.5" rx="3" fill="#3f6f9f"/><text x="868.0" y="63.325" text-anchor="start" class="label">8,912</text><text x="108" y="94.825" text-anchor="end" class="label">WA</text><rect x="120" y="77.5" width="329.3" height="23.5" rx="3" fill="#3f6f9f"/><text x="457.3132854578097" y="94.825" text-anchor="start" class="label">3,966</text><text x="108" y="126.325" text-anchor="end" class="label">FL</text><rect x="120" y="109.0" width="318.4" height="23.5" rx="3" fill="#3f6f9f"/><text x="446.4358168761221" y="126.325" text-anchor="start" class="label">3,835</text><text x="108" y="157.825" text-anchor="end" class="label">TX</text><rect x="120" y="140.5" width="286.2" height="23.5" rx="3" fill="#3f6f9f"/><text x="414.2185816876122" y="157.825" text-anchor="start" class="label">3,447</text><text x="108" y="189.325" text-anchor="end" class="label">NY</text><rect x="120" y="172.0" width="247.4" height="23.5" rx="3" fill="#3f6f9f"/><text x="375.4416517055655" y="189.325" text-anchor="start" class="label">2,980</text><text x="108" y="220.825" text-anchor="end" class="label">IL</text><rect x="120" y="203.5" width="207.5" height="23.5" rx="3" fill="#3f6f9f"/><text x="335.5022441651705" y="220.825" text-anchor="start" class="label">2,499</text><text x="108" y="252.325" text-anchor="end" class="label">AZ</text><rect x="120" y="235.0" width="200.4" height="23.5" rx="3" fill="#3f6f9f"/><text x="328.4443447037702" y="252.325" text-anchor="start" class="label">2,414</text><text x="108" y="283.825" text-anchor="end" class="label">PA</text><rect x="120" y="266.5" width="196.5" height="23.5" rx="3" fill="#3f6f9f"/><text x="324.45870736086175" y="283.825" text-anchor="start" class="label">2,366</text><text x="108" y="315.325" text-anchor="end" class="label">OH</text><rect x="120" y="298.0" width="188.9" height="23.5" rx="3" fill="#3f6f9f"/><text x="316.9026032315978" y="315.325" text-anchor="start" class="label">2,275</text><text x="108" y="346.825" text-anchor="end" class="label">MI</text><rect x="120" y="329.5" width="152.5" height="23.5" rx="3" fill="#3f6f9f"/><text x="280.45062836624777" y="346.825" text-anchor="start" class="label">1,836</text><text x="108" y="378.325" text-anchor="end" class="label">OR</text><rect x="120" y="361.0" width="145.1" height="23.5" rx="3" fill="#3f6f9f"/><text x="273.060592459605" y="378.325" text-anchor="start" class="label">1,747</text><text x="108" y="409.825" text-anchor="end" class="label">NC</text><rect x="120" y="392.5" width="144.5" height="23.5" rx="3" fill="#3f6f9f"/><text x="272.4793536804309" y="409.825" text-anchor="start" class="label">1,740</text><text x="120" y="446" text-anchor="start" class="label">Static snapshot; website includes the choropleth + toggle.</text></svg>