<svg xmlns="http://www.w3.org/2000/svg" viewBox="0 0 900 440">
    <style>
      .bg { fill: #fffdf8; }
      .axis { stroke: #d8d0c2; stroke-width: 1; }
      .grid { stroke: #eee7da; stroke-width: 1; }
      .label { fill: #62706c; font: 12px system-ui, sans-serif; }
      .title { fill: #17201d; font: 700 18px system-ui, sans-serif; }
      .note { fill: #7a5d2a; font: 700 12px system-ui, sans-serif; }
    </style>
    <rect width="900" height="440" class="bg"/><text x="132" y="26" class="title">Top US city hotspots</text><text x="120" y="62.59166666666667" text-anchor="end" class="label">Seattle, WA</text><rect x="132" y="46.0" width="732.0" height="22.2" rx="3" fill="#d65d47"/><text x="872.0" y="62.59166666666667" text-anchor="start" class="label">524</text><text x="120" y="92.75833333333334" text-anchor="end" class="label">Phoenix, AZ</text><rect x="132" y="76.2" width="628.6" height="22.2" rx="3" fill="#d65d47"/><text x="768.6259541984733" y="92.75833333333334" text-anchor="start" class="label">450</text><text x="120" y="122.92500000000001" text-anchor="end" class="label">Las Vegas, NV</text><rect x="132" y="106.3" width="507.1" height="22.2" rx="3" fill="#d65d47"/><text x="647.0916030534352" y="122.92500000000001" text-anchor="start" class="label">363</text><text x="120" y="153.09166666666667" text-anchor="end" class="label">Los Angeles, CA</text><rect x="132" y="136.5" width="491.7" height="22.2" rx="3" fill="#d65d47"/><text x="631.7251908396947" y="153.09166666666667" text-anchor="start" class="label">352</text><text x="120" y="183.25833333333335" text-anchor="end" class="label">San Diego, CA</text><rect x="132" y="166.7" width="469.4" height="22.2" rx="3" fill="#d65d47"/><text x="609.3740458015267" y="183.25833333333335" text-anchor="start" class="label">336</text><text x="120" y="213.425" text-anchor="end" class="label">Portland, OR</text><rect x="132" y="196.8" width="463.8" height="22.2" rx="3" fill="#d65d47"/><text x="603.7862595419847" y="213.425" text-anchor="start" class="label">332</text><text x="120" y="243.59166666666667" text-anchor="end" class="label">Houston, TX</text><rect x="132" y="227.0" width="410.7" height="22.2" rx="3" fill="#d65d47"/><text x="550.7022900763359" y="243.59166666666667" text-anchor="start" class="label">294</text><text x="120" y="273.7583333333333" text-anchor="end" class="label">Chicago, IL</text><rect x="132" y="257.2" width="368.8" height="22.2" rx="3" fill="#d65d47"/><text x="508.79389312977094" y="273.7583333333333" text-anchor="start" class="label">264</text><text x="120" y="303.92500000000007" text-anchor="end" class="label">Tucson, AZ</text><rect x="132" y="287.3" width="336.7" height="22.2" rx="3" fill="#d65d47"/><text x="476.6641221374046" y="303.92500000000007" text-anchor="start" class="label">241</text><text x="120" y="334.0916666666667" text-anchor="end" class="label">Miami, FL</text><rect x="132" y="317.5" width="322.7" height="22.2" rx="3" fill="#d65d47"/><text x="462.6946564885496" y="334.0916666666667" text-anchor="start" class="label">231</text><text x="120" y="364.2583333333333" text-anchor="end" class="label">Orlando, FL</text><rect x="132" y="347.7" width="304.5" height="22.2" rx="3" fill="#d65d47"/><text x="444.5343511450382" y="364.2583333333333" text-anchor="start" class="label">218</text><text x="120" y="394.42500000000007" text-anchor="end" class="label">Albuquerque, NM</text><rect x="132" y="377.8" width="297.5" height="22.2" rx="3" fill="#d65d47"/><text x="437.54961832061065" y="394.42500000000007" text-anchor="start" class="label">213</text></svg>